:SAMPLES-PER-SECOND 30
:FULLY-SPECIFIED
:DEGREES
87
root  -7.67115 39.0656 7.64897 -178.352 41.1936 178.665
RightUpLeg  -7.65518 -5.96482 -10.3388
RightLeg  20.5676 -8.84521 -3.87161
RightFoot  -8.36314 -0.51797 17.6042
RightToes  -1.74624e-010 0 -3.6325e-017
Spine  6.64991 0.895215 -4.35733
Spine1  25.3946 0.728998 0.0673676
HEad  -17.553 32.484 -13.7952
LeftShoulder1  1.29641 -2.56889 -14.4545
LeftArm  11.4834 0.0979527 -57.1701
LeftForeArm  70.675 -79.2334 -84.3765
LeftHand  -2.31239 -2.74709 32.4535
RightShoulder  0.769477 0.48661 12.2784
RightArm  6.39562 -10.7198 61.3059
RightForeArm  155.335 65.0973 157.27
RightHand  -1.27399 5.60041 -13.7012
LeftUpLeg  -12.8815 1.26639 1.37212
LeftLeg  22.9145 6.37889 3.28457
LeftFoot  -11.3272 0.0684506 -4.97546
LeftToes  3.7286e-011 -1.5702e-010 -9.70233e-012
88
root  -7.58201 39.1926 7.66716 -177.869 41.3814 178.719
RightUpLeg  -7.12329 -6.61639 -10.0989
RightLeg  18.5304 -8.65723 -3.5143
RightFoot  -7.71636 -0.606884 17.382
RightToes  -1.74624e-010 0 -3.6325e-017
Spine  6.15496 0.975296 -4.14844
Spine1  25.2956 0.955257 -0.166034
HEad  -17.302 32.2668 -13.8806
LeftShoulder1  1.33272 -2.56105 -15.1417
LeftArm  12.7469 2.32156 -57.3169
LeftForeArm  70.8001 -79.2429 -84.2192
LeftHand  -2.31167 -2.80473 32.2291
RightShoulder  0.740251 0.388261 11.9886
RightArm  6.02924 -10.6507 61.3715
RightForeArm  155.506 64.8572 157.521
RightHand  -1.26624 5.56744 -13.6586
LeftUpLeg  -12.4463 0.386846 1.49566
LeftLeg  21.3396 7.31688 3.47418
LeftFoot  -10.8904 0.0848384 -4.97517
LeftToes  3.7286e-011 -1.5702e-010 -9.70233e-012
89
root  -7.48448 39.3091 7.6687 -177.324 41.583 178.718
RightUpLeg  -6.77971 -7.31198 -9.87435
RightLeg  16.6959 -8.07705 -3.13441
RightFoot  -7.21271 -0.673149 17.1843
RightToes  -1.74624e-010 0 -3.6325e-017
Spine  5.70938 1.02286 -4.12892
Spine1  25.0317 1.05992 -0.231447
HEad  -17.3007 32.0275 -14.0606
LeftShoulder1  1.33832 -2.47275 -15.5965
LeftArm  14.354 4.74372 -57.334
LeftForeArm  72.2436 -79.272 -85.4754
LeftHand  -2.30821 -2.87811 31.914
RightShoulder  0.719777 0.355547 11.5763
RightArm  5.59343 -10.6647 61.421
RightForeArm  155.782 64.4402 157.944
RightHand  -1.20799 5.48937 -13.1387
LeftUpLeg  -12.1463 -0.131194 1.59233
LeftLeg  19.8565 8.04762 3.54094
LeftFoot  -10.4227 0.103128 -5.06749
LeftToes  3.7286e-011 -1.5702e-010 -9.70233e-012
90
root  -7.37601 39.387 7.65657 -176.907 41.6583 178.587
RightUpLeg  -6.44002 -8.07668 -9.80045
RightLeg  15.1092 -7.50991 -2.76398
RightFoot  -7.14209 -0.668545 16.7883
RightToes  -1.74624e-010 0 -3.6325e-017
Spine  5.24987 1.0208 -4.26713
Spine1  24.9011 1.07954 -0.234627
HEad  -17.513 31.7616 -14.1372
LeftShoulder1  1.32993 -2.45171 -15.53
LeftArm  15.7928 6.85936 -57.4196
LeftForeArm  74.6689 -79.3196 -87.3268
LeftHand  -2.27212 -2.92607 31.2691
RightShoulder  0.695816 0.248588 11.4602
RightArm  5.14236 -10.4445 61.1383
RightForeArm  155.846 64.0085 158.347
RightHand  -1.14676 5.39178 -12.6023
LeftUpLeg  -11.9738 -0.316205 1.59879
LeftLeg  18.7509 8.49183 3.52779
LeftFoot  -10.1761 0.11489 -5.3007
LeftToes  3.7286e-011 -1.5702e-010 -9.70233e-012
91
root  -7.26031 39.4318 7.63536 -176.696 41.6388 178.365
RightUpLeg  -6.02092 -8.46261 -9.81658
RightLeg  13.8142 -7.52877 -2.60376
RightFoot  -7.20555 -0.650745 16.551
RightToes  -1.74624e-010 0 -3.6325e-017
Spine  4.93426 0.997043 -4.41099
Spine1  24.7988 1.09578 -0.306469
HEad  -17.575 31.5168 -14.065
LeftShoulder1  1.33729 -2.55614 -15.2425
LeftArm  16.5699 8.2783 -57.4158
LeftForeArm  76.432 -79.366 -88.1863
LeftHand  -2.20252 -2.9634 30.2336
RightShoulder  0.668764 0.0950443 11.5066
RightArm  4.68265 -10.0817 60.7016
RightForeArm  155.715 63.734 158.578
RightHand  -1.12526 5.3313 -12.4398
LeftUpLeg  -11.8055 -0.621412 1.52728
LeftLeg  18.0229 8.87017 3.5473
LeftFoot  -10.2927 0.113199 -5.62558
LeftToes  3.7286e-011 -1.5702e-010 -9.70233e-012
92
root  -7.13987 39.4424 7.60221 -176.634 41.5303 178.236
RightUpLeg  -5.66592 -8.16029 -9.65044
RightLeg  13.2605 -8.25791 -2.88704
RightFoot  -7.49233 -0.60664 16.4179
RightToes  -1.74624e-010 0 -3.6325e-017
Spine  4.94187 0.976018 -4.44027
Spine1  24.5987 1.08387 -0.31803
HEad  -17.3843 31.3427 -13.9903
LeftShoulder1  1.35906 -2.67624 -15.1592
LeftArm  16.5271 8.80396 -57.0069
LeftForeArm  76.9689 -79.3902 -88.1797
LeftHand  -2.16332 -3.03497 29.4845
RightShoulder  0.652843 0.0379811 11.3412
RightArm  4.21826 -9.8706 60.46
RightForeArm  155.598 63.6114 158.674
RightHand  -1.15824 5.36293 -12.7554
LeftUpLeg  -11.676 -1.47781 1.532
LeftLeg  17.9256 9.42305 3.73608
LeftFoot  -10.9299 0.0872324 -6.09103
LeftToes  3.7286e-011 -1.5702e-010 -9.70233e-012
93
root  -7.00302 39.39 7.55558 -176.656 41.362 178.208
RightUpLeg  -5.72846 -7.10253 -9.29478
RightLeg  14.0734 -9.40514 -3.60525
RightFoot  -8.62077 -0.444139 16.0909
RightToes  -1.74624e-010 0 -3.6325e-017
Spine  5.14022 1.00181 -4.51203
Spine1  24.4613 1.03027 -0.126783
HEad  -17.216 31.1795 -13.9284
LeftShoulder1  1.3596 -2.67466 -15.1752
LeftArm  15.7205 8.46165 -56.2978
LeftForeArm  77.582 -79.3849 -88.9915
LeftHand  -2.19885 -3.11322 29.6801
RightShoulder  0.646916 0.0646849 10.9993
RightArm  3.8155 -9.79357 60.4141
RightForeArm  155.577 63.5767 158.703
RightHand  -1.21871 5.45133 -13.2968
LeftUpLeg  -11.8003 -2.94934 1.63523
LeftLeg  18.8707 10.3057 4.23379
LeftFoot  -12.4192 0.00966199 -6.80075
LeftToes  3.7286e-011 -1.5702e-010 -9.70233e-012
94
root  -6.82751 39.2367 7.51216 -176.799 41.3113 177.97
RightUpLeg  -6.6177 -5.38382 -9.25767
RightLeg  16.6954 -10.8396 -4.41249
RightFoot  -10.6864 -0.164044 16.0794
RightToes  -1.74624e-010 0 -3.6325e-017
Spine  5.45345 1.15577 -4.99307
Spine1  24.2388 1.04977 0.100734
HEad  -17.1747 30.9157 -13.6532
LeftShoulder1  1.30691 -2.50004 -14.912
LeftArm  14.3101 7.5528 -55.6225
LeftForeArm  78.8206 -79.3514 -90.9977
LeftHand  -2.26471 -3.10993 30.5369
RightShoulder  0.640174 0.0612211 10.8074
RightArm  3.60318 -9.75335 60.3732
RightForeArm  155.635 63.6247 158.667
RightHand  -1.24634 5.49164 -13.5406
LeftUpLeg  -12.3786 -4.73456 1.59214
LeftLeg  20.9663 11.3372 5.08631
LeftFoot  -14.841 -0.148513 -7.73112
LeftToes  3.7286e-011 -1.5702e-010 -9.70233e-012
95
root  -6.59959 38.9584 7.4956 -177.149 41.4577 177.35
RightUpLeg  -8.60818 -4.58126 -9.7649
RightLeg  21.483 -11.8264 -5.24746
RightFoot  -12.787 0.128896 16.9708
RightToes  -1.74624e-010 0 -3.6325e-017
Spine  6.23018 1.45423 -5.97105
Spine1  23.3611 1.20637 0.142675
HEad  -17.1082 30.5297 -13.0983
LeftShoulder1  1.22534 -2.25116 -14.391
LeftArm  12.6517 6.51773 -54.8442
LeftForeArm  79.4495 -79.2787 -92.9959
LeftHand  -2.31096 -2.98282 31.5754
RightShoulder  0.639946 0.058325 10.8166
RightArm  3.69913 -9.94695 60.4187
RightForeArm  155.672 63.7159 158.59
RightHand  -1.23331 5.47502 -13.424
LeftUpLeg  -13.4411 -6.40645 1.30505
LeftLeg  24.0502 11.9488 6.10525
LeftFoot  -17.5497 -0.369584 -8.7397
LeftToes  3.7286e-011 -1.5702e-010 -9.70233e-012
96
root  -6.31835 38.5597 7.5075 -177.766 41.5797 176.614
RightUpLeg  -11.5122 -6.47204 -10.1582
RightLeg  28.4068 -11.4044 -6.84934
RightFoot  -13.9403 0.317698 18.1055
RightToes  -1.74624e-010 0 -3.6325e-017
Spine  7.6549 1.80908 -7.14235
Spine1  21.9221 1.36228 0.146748
HEad  -17.1247 30.0928 -12.5928
LeftShoulder1  1.18739 -2.17399 -13.9761
LeftArm  11.1335 5.58465 -53.53
LeftForeArm  79.0119 -79.1681 -94.6344
LeftHand  -2.39189 -2.84258 33.1325
RightShoulder  0.656597 0.149753 10.8218
RightArm  4.13431 -10.3947 60.7983
RightForeArm  155.448 63.8449 158.453
RightHand  -1.27148 5.5511 -13.7308
LeftUpLeg  -14.6973 -7.41092 1.04334
LeftLeg  27.7656 11.6295 6.9084
LeftFoot  -19.6121 -0.580541 -9.64481
LeftToes  3.7286e-011 -1.5702e-010 -9.70233e-012
97
root  -5.97898 38.0595 7.52547 -178.655 41.4946 176.059
RightUpLeg  -14.6778 -8.28315 -10.3364
RightLeg  36.5994 -11.4913 -9.28142
RightFoot  -14.2984 0.379552 18.3524
RightToes  -1.74624e-010 0 -3.6325e-017
Spine  9.16093 2.17576 -8.31569
Spine1  21.0117 1.39208 0.474972
HEad  -17.5133 29.672 -12.3991
LeftShoulder1  1.22071 -2.38393 -13.7787
LeftArm  9.89534 4.55649 -51.9522
LeftForeArm  77.3865 -79.0867 -94.9204
LeftHand  -2.59318 -2.90491 35.4799
RightShoulder  0.679406 0.274584 10.8298
RightArm  4.84975 -10.5611 61.4675
RightForeArm  154.824 64.3115 157.964
RightHand  -1.42346 5.84109 -14.9363
LeftUpLeg  -15.7456 -7.35196 1.06148
LeftLeg  31.745 10.4398 7.24759
LeftFoot  -20.9349 -0.747996 -10.3889
LeftToes  3.7286e-011 -1.5702e-010 -9.70233e-012
98
root  -5.55503 37.5091 7.53289 -179.75 41.3805 175.6
RightUpLeg  -17.5267 -9.41748 -10.5088
RightLeg  43.763 -11.1481 -11.4871
RightFoot  -14.8161 0.437267 17.644
RightToes  -1.74624e-010 0 -3.6325e-017
Spine  10.0773 2.63667 -9.59964
Spine1  21.2474 1.4249 1.12188
HEad  -18.04 29.2733 -12.2635
LeftShoulder1  1.25824 -2.62296 -13.5635
LeftArm  9.05006 2.94344 -51.2502
LeftForeArm  69.4898 -79.085 -87.5224
LeftHand  -2.85832 -3.17344 37.7259
RightShoulder  0.702195 0.347134 11.1119
RightArm  5.74642 -10.1496 62.1238
RightForeArm  153.717 65.6027 156.582
RightHand  -1.5977 6.22372 -16.1853
LeftUpLeg  -16.3493 -6.40428 1.3273
LeftLeg  35.5517 8.74212 7.02463
LeftFoot  -22.2306 -0.938473 -11.2085
LeftToes  3.7286e-011 -1.5702e-010 -9.70233e-012
99
root  -5.02006 36.9745 7.5274 179.116 41.483 175.032
RightUpLeg  -20.1271 -9.97223 -10.9653
RightLeg  48.2917 -10.4153 -12.5781
RightFoot  -15.8998 0.572826 16.9961
RightToes  -1.74624e-010 0 -3.6325e-017
Spine  10.4357 3.21759 -10.8995
Spine1  21.9432 1.69118 1.55381
HEad  -18.0986 28.8985 -11.8139
LeftShoulder1  1.2367 -2.61124 -13.2182
LeftArm  8.96914 0.404653 -52.2084
LeftForeArm  48.2592 -78.0296 -65.8527
LeftHand  -3.00031 -3.30444 38.9052
RightShoulder  0.746154 0.453053 11.8027
RightArm  6.70354 -9.74277 62.672
RightForeArm  151.459 67.8922 153.732
RightHand  -1.67563 6.50524 -16.5628
LeftUpLeg  -16.5738 -5.01081 1.73683
LeftLeg  38.8872 6.71363 6.16004
LeftFoot  -23.9776 -1.22954 -12.3554
LeftToes  3.7286e-011 -1.5702e-010 -9.70233e-012
